<svg xmlns="http://www.w3.org/2000/svg">

<polyline points="256.0,0 256.0,256.0 512,256.0 512,0 256.0,0" style="fill:none;stroke:black;stroke-width:1" />
<circle cx="500" cy="10" r="4" stroke="black" stroke-width="2" fill="red"/>
<polyline points="0,256.0 0,512 256.0,512 256.0,256.0 0,256.0" style="fill:none;stroke:black;stroke-width:1" />
<polyline points="256.0,256.0 256.0,512 512,512 512,256.0 256.0,256.0" style="fill:none;stroke:black;stroke-width:1" />
<polyline points="128.0,0 128.0,128.0 256.0,128.0 256.0,0 128.0,0" style="fill:none;stroke:black;stroke-width:1" />
<polyline points="0,128.0 0,256.0 128.0,256.0 128.0,128.0 0,128.0" style="fill:none;stroke:black;stroke-width:1" />
<circle cx="34" cy="130" r="6" stroke="black" stroke-width="2" fill="red"/>
<circle cx="15" cy="130" r="3" stroke="black" stroke-width="2" fill="red"/>
<polyline points="128.0,128.0 128.0,256.0 256.0,256.0 256.0,128.0 128.0,128.0" style="fill:none;stroke:black;stroke-width:1" />
<polyline points="0,0 0,64.0 64.0,64.0 64.0,0 0,0" style="fill:none;stroke:black;stroke-width:1" />
<circle cx="5" cy="10" r="1" stroke="black" stroke-width="2" fill="red"/>
<circle cx="50" cy="10" r="2" stroke="black" stroke-width="2" fill="red"/>
<polyline points="64.0,0 64.0,64.0 128.0,64.0 128.0,0 64.0,0" style="fill:none;stroke:black;stroke-width:1" />
<polyline points="0,64.0 0,128.0 64.0,128.0 64.0,64.0 0,64.0" style="fill:none;stroke:black;stroke-width:1" />
<circle cx="35" cy="106" r="5" stroke="black" stroke-width="2" fill="red"/>
<polyline points="64.0,64.0 64.0,128.0 128.0,128.0 128.0,64.0 64.0,64.0" style="fill:none;stroke:black;stroke-width:1" />
</svg>
