<svg xmlns="http://www.w3.org/2000/svg">

<polyline points="256.0,0 256.0,256.0 512,256.0 512,0 256.0,0" style="fill:none;stroke:black;stroke-width:1" />
<circle cx="500" cy="10" r="4" stroke="black" stroke-width="2" fill="red"/>
<circle cx="353" cy="105" r="9" stroke="black" stroke-width="2" fill="red"/>
<polyline points="0,256.0 0,512 256.0,512 256.0,256.0 0,256.0" style="fill:none;stroke:black;stroke-width:1" />
<circle cx="125" cy="431" r="8" stroke="black" stroke-width="2" fill="red"/>
<polyline points="256.0,256.0 256.0,512 512,512 512,256.0 256.0,256.0" style="fill:none;stroke:black;stroke-width:1" />
<polyline points="128.0,0 128.0,128.0 256.0,128.0 256.0,0 128.0,0" style="fill:none;stroke:black;stroke-width:1" />
<polyline points="128.0,128.0 128.0,256.0 256.0,256.0 256.0,128.0 128.0,128.0" style="fill:none;stroke:black;stroke-width:1" />
<circle cx="158" cy="141" r="15" stroke="black" stroke-width="2" fill="red"/>
<polyline points="64.0,0 64.0,64.0 128.0,64.0 128.0,0 64.0,0" style="fill:none;stroke:black;stroke-width:1" />
<polyline points="0,64.0 0,128.0 64.0,128.0 64.0,64.0 0,64.0" style="fill:none;stroke:black;stroke-width:1" />
<circle cx="5" cy="106" r="5" stroke="black" stroke-width="2" fill="red"/>
<circle cx="15" cy="110" r="7" stroke="black" stroke-width="2" fill="red"/>
<polyline points="64.0,64.0 64.0,128.0 128.0,128.0 128.0,64.0 64.0,64.0" style="fill:none;stroke:black;stroke-width:1" />
<polyline points="0,128.0 0,192.0 64.0,192.0 64.0,128.0 0,128.0" style="fill:none;stroke:black;stroke-width:1" />
<circle cx="4" cy="130" r="6" stroke="black" stroke-width="2" fill="red"/>
<circle cx="-15" cy="130" r="3" stroke="black" stroke-width="2" fill="red"/>
<polyline points="64.0,128.0 64.0,192.0 128.0,192.0 128.0,128.0 64.0,128.0" style="fill:none;stroke:black;stroke-width:1" />
<circle cx="95" cy="130" r="10" stroke="black" stroke-width="2" fill="red"/>
<circle cx="125" cy="131" r="11" stroke="black" stroke-width="2" fill="red"/>
<polyline points="0,192.0 0,256.0 64.0,256.0 64.0,192.0 0,192.0" style="fill:none;stroke:black;stroke-width:1" />
<polyline points="64.0,192.0 64.0,256.0 128.0,256.0 128.0,192.0 64.0,192.0" style="fill:none;stroke:black;stroke-width:1" />
<polyline points="0,0 0,32.0 32.0,32.0 32.0,0 0,0" style="fill:none;stroke:black;stroke-width:1" />
<circle cx="-25" cy="10" r="1" stroke="black" stroke-width="2" fill="red"/>
<circle cx="-15" cy="30" r="12" stroke="black" stroke-width="2" fill="red"/>
<polyline points="32.0,0 32.0,32.0 64.0,32.0 64.0,0 32.0,0" style="fill:none;stroke:black;stroke-width:1" />
<circle cx="20" cy="10" r="2" stroke="black" stroke-width="2" fill="red"/>
<polyline points="0,32.0 0,64.0 32.0,64.0 32.0,32.0 0,32.0" style="fill:none;stroke:black;stroke-width:1" />
<circle cx="-14.7" cy="35" r="13" stroke="black" stroke-width="2" fill="red"/>
<polyline points="32.0,32.0 32.0,64.0 64.0,64.0 64.0,32.0 32.0,32.0" style="fill:none;stroke:black;stroke-width:1" />
<circle cx="20" cy="40" r="14" stroke="black" stroke-width="2" fill="red"/>
</svg>
